<svg id="Camada_1" data-name="Camada 1" xmlns="http://www.w3.org/2000/svg" viewBox="0 0 200 123"><defs><style>.cls-1{fill:#fec63e;}</style></defs><path class="cls-1" d="M24.77,60.5A25.82,25.82,0,0,1,22,61.6a11.3,11.3,0,0,1-3.58.49,6,6,0,0,1-4.66-1.66,6.76,6.76,0,0,1-1.52-4.73V42.3H8.64V39.92h3.7V33.3h6.52v6.62h5.65V42.3H18.9v12a7.3,7.3,0,0,0,.66,3.62,2.52,2.52,0,0,0,2.35,1.06c.36,0,.87,0,1.51-.08a8.65,8.65,0,0,0,1.35-.2Z"/><path class="cls-1" d="M49.18,61a15,15,0,0,1-2.09.77,9.29,9.29,0,0,1-2.55.35,6.57,6.57,0,0,1-3.64-.8,4,4,0,0,1-1.58-2.28H39.2a15,15,0,0,1-1.32,1.26,8,8,0,0,1-1.36.9,9.61,9.61,0,0,1-1.83.72,9.67,9.67,0,0,1-2.44.24,5.72,5.72,0,0,1-4-1.5,5.11,5.11,0,0,1-1.66-4A7.16,7.16,0,0,1,27,54.31a5.55,5.55,0,0,1,2.43-2.92,15.66,15.66,0,0,1,1.74-.85Q33,49.82,35.49,49a22.58,22.58,0,0,0,3.71-1.39V45.56c0-.37,0-.85-.08-1.44a5.35,5.35,0,0,0-.34-1.51,2.87,2.87,0,0,0-.89-1.18A2.47,2.47,0,0,0,36.3,41a3.59,3.59,0,0,0-1.48.27,4.87,4.87,0,0,0-1,.56,10.8,10.8,0,0,0,.35,1.33,5.68,5.68,0,0,1,.28,1.73,3.13,3.13,0,0,1-.18.92,2.05,2.05,0,0,1-.53.89,3.48,3.48,0,0,1-1,.68,4.93,4.93,0,0,1-1.77.24,3.43,3.43,0,0,1-2.56-.89,3.3,3.3,0,0,1,0-4.5,7.29,7.29,0,0,1,2.18-1.6,11.71,11.71,0,0,1,2.91-1,14.42,14.42,0,0,1,3.06-.36,24.53,24.53,0,0,1,3.58.25,8.11,8.11,0,0,1,2.94,1,5.37,5.37,0,0,1,2,2.22,8.41,8.41,0,0,1,.74,3.79q0,2.46-.09,5.85c-.07,2.26-.1,3.74-.1,4.45a3.69,3.69,0,0,0,.28,1.56,1.85,1.85,0,0,0,.83.85,2.91,2.91,0,0,0,1.08.2c.49,0,.93,0,1.34,0Zm-10-11.38a24.33,24.33,0,0,0-2.24,1,8.66,8.66,0,0,0-1.82,1.12A4.13,4.13,0,0,0,34,53.31a5.49,5.49,0,0,0-.43,2.24A3.55,3.55,0,0,0,34.26,58a2.33,2.33,0,0,0,1.77.76,3.16,3.16,0,0,0,1.83-.49,5.59,5.59,0,0,0,1.26-1.22Z"/><path class="cls-1" d="M70.76,43.83a4.73,4.73,0,0,1-1,2.92A3,3,0,0,1,67.32,48a3.88,3.88,0,0,1-2.48-.8,2.85,2.85,0,0,1-1-2.37,5.31,5.31,0,0,1,.1-1.19c.07-.28.13-.54.18-.79a4,4,0,0,0-1.95.69,6.58,6.58,0,0,0-1.81,1.73v12a3.11,3.11,0,0,0,.22,1.27,1.66,1.66,0,0,0,.74.79,5,5,0,0,0,1.44.4c.67.11,1.15.17,1.44.19V61.5H50.72V59.91q.51,0,1-.12a5.05,5.05,0,0,0,.87-.21,1.52,1.52,0,0,0,.89-.74,3.1,3.1,0,0,0,.24-1.31V44.81a2.82,2.82,0,0,0-.34-1.4A2.66,2.66,0,0,0,51.66,42a6.27,6.27,0,0,0-1.22-.25V40.14l9.6-.57.3.33v3.17h.08a12.1,12.1,0,0,1,2.95-2.74,5.9,5.9,0,0,1,3.25-1,3.85,3.85,0,0,1,3,1.26A4.64,4.64,0,0,1,70.76,43.83Z"/><path class="cls-1" d="M81.46,62.24a13.21,13.21,0,0,1-6.7-1.94l-.6,1.48H72.59l-.26-8.14H73.8a11.11,11.11,0,0,0,1,2.21,11.92,11.92,0,0,0,1.61,2.22,9,9,0,0,0,2.16,1.66,5.32,5.32,0,0,0,2.61.68,4.08,4.08,0,0,0,2.73-.78,3,3,0,0,0,.89-2.39,2.42,2.42,0,0,0-.4-1.44,3.44,3.44,0,0,0-1.11-1,10,10,0,0,0-1.72-.75l-2.3-.74a21.55,21.55,0,0,1-2.35-.88,8.09,8.09,0,0,1-2-1.41,6.61,6.61,0,0,1-1.45-2,7,7,0,0,1-.54-2.87,6,6,0,0,1,2.39-5,9.68,9.68,0,0,1,6.24-1.9,13.25,13.25,0,0,1,3.37.4,16.17,16.17,0,0,1,2.59.88l.42-1.28h1.53l.32,7.44H88.36A9.13,9.13,0,0,0,86,42.77a5.24,5.24,0,0,0-3.68-1.65,3.87,3.87,0,0,0-2.44.7,2.35,2.35,0,0,0-.88,2,2.57,2.57,0,0,0,1.29,2.4,16.92,16.92,0,0,0,3.63,1.4,11.48,11.48,0,0,1,5.26,2.74,6.11,6.11,0,0,1,1.66,4.42,6.57,6.57,0,0,1-2.58,5.55A10.84,10.84,0,0,1,81.46,62.24Z"/><path class="cls-1" d="M127.73,50.82a11.56,11.56,0,0,1-3,8.15,9.88,9.88,0,0,1-7.57,3.23,15,15,0,0,1-3-.27,11.81,11.81,0,0,1-2.16-.67,8.43,8.43,0,0,1-1.48-.82c-.37-.27-.66-.49-.88-.67l-2.87,2.84-1.19-.5c.07-1.06.12-2.21.17-3.46s.07-2.92.07-5V33.17a3.78,3.78,0,0,0-.31-1.54,2.58,2.58,0,0,0-.84-1.08,4,4,0,0,0-1.11-.46,7.37,7.37,0,0,0-1.36-.24V28.26l10-.57.3.35v14.2h.12a10,10,0,0,1,3-2.27,7.3,7.3,0,0,1,3.1-.72,8,8,0,0,1,6.65,3.12Q127.73,45.49,127.73,50.82Zm-7.22.26a22.21,22.21,0,0,0-.23-3.2,10.47,10.47,0,0,0-.78-2.72,5.18,5.18,0,0,0-1.42-1.89,3.41,3.41,0,0,0-2.19-.71,4.26,4.26,0,0,0-2,.44,4.57,4.57,0,0,0-1.44,1.29V57a8.17,8.17,0,0,0,.45,1.15,5,5,0,0,0,.67,1.1,3.52,3.52,0,0,0,1,.86,3.17,3.17,0,0,0,1.52.3c1.37,0,2.44-.81,3.23-2.44A16.09,16.09,0,0,0,120.51,51.08Z"/><path class="cls-1" d="M143,61.5H130.32V59.91l1-.11a3.71,3.71,0,0,0,.86-.22,1.75,1.75,0,0,0,.91-.76,2.79,2.79,0,0,0,.26-1.29V44.81a2.77,2.77,0,0,0-.32-1.34,2.93,2.93,0,0,0-.81-.93,4.17,4.17,0,0,0-1.09-.5,7.25,7.25,0,0,0-1.34-.31V40.14l9.86-.57.3.33V57.24a2.63,2.63,0,0,0,.3,1.3,1.9,1.9,0,0,0,.86.8,6.6,6.6,0,0,0,.89.35,6.46,6.46,0,0,0,1,.22ZM140.1,31.71a4,4,0,1,1-7.95,0,3.9,3.9,0,0,1,1.18-2.84,3.91,3.91,0,0,1,5.6,0A3.89,3.89,0,0,1,140.1,31.71Z"/><path class="cls-1" d="M170.7,61.5h-9.49c-1.16-2.22-2.23-4.11-3.19-5.65s-1.88-3-2.74-4.31l-1.18,1.09v4.76a3.34,3.34,0,0,0,.21,1.29,1.36,1.36,0,0,0,.82.75,5.79,5.79,0,0,0,.84.3,5.35,5.35,0,0,0,1,.18V61.5h-12.5V59.91q.51,0,1-.12a6.15,6.15,0,0,0,.89-.21,1.5,1.5,0,0,0,.88-.74,3.27,3.27,0,0,0,.23-1.31V33.17a4.28,4.28,0,0,0-.29-1.49,2.4,2.4,0,0,0-.86-1.17,3.3,3.3,0,0,0-1.14-.44,10.15,10.15,0,0,0-1.39-.22V28.26l10-.57.3.35V50.58c1-1,2.11-2.08,3.34-3.34s2.24-2.32,3-3.15a2.8,2.8,0,0,0,.73-1.12,3.37,3.37,0,0,0,.07-.47q0-.39-.63-.66a9.3,9.3,0,0,0-1.91-.45V39.83H168.9v1.51a20,20,0,0,0-3.06,1.15,18,18,0,0,0-2.3,1.43q-.82.59-1.59,1.23c-.52.44-1.11,1-1.78,1.61l3.64,5.75q1.66,2.64,3.49,5.58a3.09,3.09,0,0,0,1.55,1.38,7.22,7.22,0,0,0,1.85.44Z"/><path class="cls-1" d="M192.54,56.28a13.09,13.09,0,0,1-1.7,2.35,10.81,10.81,0,0,1-2.26,1.89,11.88,11.88,0,0,1-2.73,1.25,10.52,10.52,0,0,1-3.17.43,13.18,13.18,0,0,1-5.14-.92A10,10,0,0,1,174,58.81a10.09,10.09,0,0,1-2.1-3.65,14.66,14.66,0,0,1-.69-4.58,12.3,12.3,0,0,1,.75-4.27,12,12,0,0,1,2.14-3.64,10.46,10.46,0,0,1,3.45-2.51,11,11,0,0,1,4.66-1,12.43,12.43,0,0,1,4.63.74,8.28,8.28,0,0,1,3,2.06,7.53,7.53,0,0,1,1.66,2.93,12,12,0,0,1,.53,3.55V49.9H178.4q0,4.49,1.59,6.82a5.66,5.66,0,0,0,5,2.33,5.55,5.55,0,0,0,3.4-1.12A10.25,10.25,0,0,0,191,55.08ZM184.86,48c0-.87,0-1.77-.12-2.69a9.57,9.57,0,0,0-.43-2.24,3.47,3.47,0,0,0-.93-1.56,2.24,2.24,0,0,0-1.5-.52,2.77,2.77,0,0,0-2.47,1.7,12.36,12.36,0,0,0-1,5.4Z"/><path class="cls-1" d="M21.29,98.71a12.79,12.79,0,0,1-4.93-.89,9.59,9.59,0,0,1-3.53-2.41,10.06,10.06,0,0,1-2.08-3.67,15.11,15.11,0,0,1-.68-4.61,11.49,11.49,0,0,1,.83-4.32,12.08,12.08,0,0,1,2.27-3.61,10.62,10.62,0,0,1,3.65-2.54,12,12,0,0,1,4.82-1,10,10,0,0,1,5.85,1.52,4.76,4.76,0,0,1,2.15,4.09,4,4,0,0,1-.76,2.54,3.19,3.19,0,0,1-2.64,1A4,4,0,0,1,23.72,84a2.47,2.47,0,0,1-1-2A7.31,7.31,0,0,1,23,79.86a9.11,9.11,0,0,0,.39-1.6,1.65,1.65,0,0,0-.57-.6,2.18,2.18,0,0,0-1.06-.2,3,3,0,0,0-1.65.46,4.21,4.21,0,0,0-1.39,1.61,10,10,0,0,0-1,2.93,23.14,23.14,0,0,0-.37,4.41,10.67,10.67,0,0,0,1.68,6.27,4.85,4.85,0,0,0,4,2.38,5.46,5.46,0,0,0,3.56-1.08A9.84,9.84,0,0,0,29,91.37l1.51,1.13A12.73,12.73,0,0,1,29,94.94a9.87,9.87,0,0,1-2.07,2,10.7,10.7,0,0,1-2.58,1.36A9.3,9.3,0,0,1,21.29,98.71Z"/><path class="cls-1" d="M51.73,80.34a4.68,4.68,0,0,1-.95,2.91,3,3,0,0,1-2.49,1.26,3.88,3.88,0,0,1-2.48-.8,2.85,2.85,0,0,1-1-2.37,5.25,5.25,0,0,1,.1-1.19c.07-.28.13-.55.18-.79a4,4,0,0,0-2,.69,6.58,6.58,0,0,0-1.81,1.73v12A3.14,3.14,0,0,0,41.53,95a1.62,1.62,0,0,0,.75.78,4.8,4.8,0,0,0,1.43.41,12.94,12.94,0,0,0,1.44.18V98H31.69v-1.6q.51,0,1-.12a5.5,5.5,0,0,0,.88-.2,1.51,1.51,0,0,0,.88-.75A3,3,0,0,0,34.71,94V81.32a2.88,2.88,0,0,0-.34-1.41,3.13,3.13,0,0,0-.83-1,3.35,3.35,0,0,0-.91-.44,6.94,6.94,0,0,0-1.22-.24V76.65l9.6-.57.3.33v3.17h.08a12.36,12.36,0,0,1,3-2.75,6,6,0,0,1,3.25-1,3.84,3.84,0,0,1,3,1.26A4.61,4.61,0,0,1,51.73,80.34Z"/><path class="cls-1" d="M76.11,97.55a13.46,13.46,0,0,1-2.09.76,8.83,8.83,0,0,1-2.55.35,6.56,6.56,0,0,1-3.63-.79,4,4,0,0,1-1.59-2.29h-.12a11.86,11.86,0,0,1-1.32,1.27,7.29,7.29,0,0,1-1.36.9,9.8,9.8,0,0,1-1.82.72,9.7,9.7,0,0,1-2.45.24,5.72,5.72,0,0,1-4-1.5,5.1,5.1,0,0,1-1.65-4,7.18,7.18,0,0,1,.36-2.42,5.63,5.63,0,0,1,1-1.76,5.38,5.38,0,0,1,1.4-1.16,15.66,15.66,0,0,1,1.74-.85c1.21-.48,2.66-1,4.36-1.5a23.35,23.35,0,0,0,3.7-1.39v-2.1c0-.36,0-.84-.08-1.44a5,5,0,0,0-.34-1.5,2.79,2.79,0,0,0-.89-1.18,2.46,2.46,0,0,0-1.58-.48,3.53,3.53,0,0,0-1.48.27,4.59,4.59,0,0,0-1,.56,8.87,8.87,0,0,0,.34,1.33,5.69,5.69,0,0,1,.29,1.72,3.19,3.19,0,0,1-.19.93,2.1,2.1,0,0,1-.52.89,3.49,3.49,0,0,1-1,.67,4.83,4.83,0,0,1-1.76.24,3.45,3.45,0,0,1-2.57-.88,3.33,3.33,0,0,1,0-4.5,7.25,7.25,0,0,1,2.18-1.6,11.79,11.79,0,0,1,2.92-1,14.42,14.42,0,0,1,3.06-.36,23.3,23.3,0,0,1,3.58.25,8.06,8.06,0,0,1,2.94,1,5.4,5.4,0,0,1,2,2.21A8.44,8.44,0,0,1,72.77,83c0,1.65,0,3.6-.09,5.86s-.09,3.74-.09,4.45a3.65,3.65,0,0,0,.27,1.55,1.74,1.74,0,0,0,.84.85,2.59,2.59,0,0,0,1.07.21c.49,0,.94,0,1.34,0Zm-10-11.38c-.75.28-1.5.6-2.24,1a9,9,0,0,0-1.81,1.13,4.26,4.26,0,0,0-1.18,1.57,5.49,5.49,0,0,0-.42,2.24,3.52,3.52,0,0,0,.72,2.47A2.3,2.3,0,0,0,63,95.3a3.16,3.16,0,0,0,1.83-.49,5.4,5.4,0,0,0,1.26-1.22Z"/><path class="cls-1" d="M96.69,67.91a5.36,5.36,0,0,1-.16,1.2A2.84,2.84,0,0,1,96,70.23a3,3,0,0,1-.94.83,3.39,3.39,0,0,1-1.57.28A2.94,2.94,0,0,1,91,70.14a16.29,16.29,0,0,1-1.94-4,3,3,0,0,0-1.3,1.92,26.65,26.65,0,0,0-.51,6.65v1.72h5.56v2.38H87.29v15a1.95,1.95,0,0,0,1.31,2,9.47,9.47,0,0,0,1.27.33,12.81,12.81,0,0,0,1.41.23V98H77.68v-1.6l1-.1a4,4,0,0,0,.88-.22,1.57,1.57,0,0,0,.88-.76A2.94,2.94,0,0,0,80.7,94V78.81H76.61V76.43H80.7a16.23,16.23,0,0,1,.62-4.52A11.87,11.87,0,0,1,83.25,68a9.32,9.32,0,0,1,3.34-2.74,10.63,10.63,0,0,1,4.87-1,6.29,6.29,0,0,1,3.86,1A3.2,3.2,0,0,1,96.69,67.91Z"/><path class="cls-1" d="M110.18,97a24.8,24.8,0,0,1-2.76,1.11,11.59,11.59,0,0,1-3.58.49,6,6,0,0,1-4.66-1.66,6.77,6.77,0,0,1-1.51-4.73V78.81H94.05V76.43h3.7V69.81h6.51v6.62h5.66v2.38H104.3v12a7.27,7.27,0,0,0,.66,3.62,2.52,2.52,0,0,0,2.35,1.07c.37,0,.87,0,1.52-.08a9.08,9.08,0,0,0,1.35-.2Z"/><path class="cls-1" d="M200,106.59H0V16.41H200ZM3.09,103.5H196.91v-84H3.09Z"/></svg>