<svg id="Camada_1" data-name="Camada 1" xmlns="http://www.w3.org/2000/svg" viewBox="0 0 100 62"><path d="M12.39,30.5a12.4,12.4,0,0,1-1.38.55,5.81,5.81,0,0,1-1.79.25,3,3,0,0,1-2.33-.83,3.39,3.39,0,0,1-.76-2.37V21.4H4.32V20.21H6.17V16.9H9.43v3.31h2.83V21.4H9.45v6a3.65,3.65,0,0,0,.33,1.81,1.27,1.27,0,0,0,1.17.53c.19,0,.44,0,.76,0a4,4,0,0,0,.68-.1Z"/><path d="M24.59,30.77a6.32,6.32,0,0,1-1.05.38,4.38,4.38,0,0,1-1.27.18,3.34,3.34,0,0,1-1.82-.4,2,2,0,0,1-.79-1.14H19.6a6.29,6.29,0,0,1-.66.63,3.34,3.34,0,0,1-.68.45,5,5,0,0,1-.91.36,4.87,4.87,0,0,1-1.23.12,2.85,2.85,0,0,1-2-.75,2.55,2.55,0,0,1-.83-2,3.55,3.55,0,0,1,.18-1.21,2.77,2.77,0,0,1,.52-.88,2.44,2.44,0,0,1,.7-.58,5.87,5.87,0,0,1,.87-.43c.6-.24,1.33-.49,2.18-.75a12.52,12.52,0,0,0,1.85-.69V23c0-.18,0-.42,0-.72a3,3,0,0,0-.17-.76,1.44,1.44,0,0,0-.45-.59,1.22,1.22,0,0,0-.79-.24,1.78,1.78,0,0,0-.74.14,2.1,2.1,0,0,0-.48.28,5,5,0,0,0,.17.67,2.64,2.64,0,0,1,.15.86,1.6,1.6,0,0,1-.1.46.91.91,0,0,1-.26.44,1.61,1.61,0,0,1-.52.34,2.4,2.4,0,0,1-.88.12,1.7,1.7,0,0,1-1.28-.44,1.67,1.67,0,0,1,0-2.25,3.71,3.71,0,0,1,1.09-.8A6,6,0,0,1,16.77,20a7.21,7.21,0,0,1,1.53-.18,11,11,0,0,1,1.79.13,4,4,0,0,1,1.47.51,2.68,2.68,0,0,1,1,1.11,4.17,4.17,0,0,1,.37,1.9c0,.82,0,1.8-.05,2.92s0,1.88,0,2.23a1.86,1.86,0,0,0,.13.78.86.86,0,0,0,.42.42,1.29,1.29,0,0,0,.54.11h.67Zm-5-5.69a12.17,12.17,0,0,0-1.12.48,4.46,4.46,0,0,0-.91.56,2.3,2.3,0,0,0-.59.78A2.81,2.81,0,0,0,16.77,28a1.74,1.74,0,0,0,.36,1.23,1.15,1.15,0,0,0,.88.39,1.64,1.64,0,0,0,.92-.25,2.6,2.6,0,0,0,.63-.61Z"/><path d="M35.38,22.17a2.35,2.35,0,0,1-.47,1.45,1.49,1.49,0,0,1-1.25.63,1.92,1.92,0,0,1-1.24-.4,1.42,1.42,0,0,1-.51-1.19,2.94,2.94,0,0,1,.05-.59l.09-.4a2.09,2.09,0,0,0-1,.35,3.37,3.37,0,0,0-.9.87v6a1.67,1.67,0,0,0,.11.64.87.87,0,0,0,.37.39,2.36,2.36,0,0,0,.72.2,6.2,6.2,0,0,0,.72.09V31H25.36v-.8a4.43,4.43,0,0,0,.51-.06,2.21,2.21,0,0,0,.44-.1.75.75,0,0,0,.44-.37,1.56,1.56,0,0,0,.12-.66V22.66a1.5,1.5,0,0,0-.58-1.2,1.64,1.64,0,0,0-.46-.22,2.75,2.75,0,0,0-.61-.12v-.8L30,20l.15.16v1.58h0a6,6,0,0,1,1.47-1.37,3,3,0,0,1,1.63-.49,2,2,0,0,1,1.5.62A2.33,2.33,0,0,1,35.38,22.17Z"/><path d="M40.73,31.37a5.92,5.92,0,0,1-1.91-.31,6.14,6.14,0,0,1-1.44-.66l-.3.74h-.79l-.13-4.07h.74a5.75,5.75,0,0,0,.5,1.11,6.09,6.09,0,0,0,.81,1.11,4.7,4.7,0,0,0,1.08.83,2.67,2.67,0,0,0,1.3.33A2.08,2.08,0,0,0,42,30.07a1.5,1.5,0,0,0,.45-1.2,1.25,1.25,0,0,0-.2-.72,1.88,1.88,0,0,0-.55-.49,4.74,4.74,0,0,0-.86-.37l-1.16-.37a12.11,12.11,0,0,1-1.17-.45,4.11,4.11,0,0,1-1-.7,3.18,3.18,0,0,1-.72-1,3.44,3.44,0,0,1-.27-1.43,3,3,0,0,1,1.19-2.49,4.86,4.86,0,0,1,3.12-.95,6.93,6.93,0,0,1,1.69.2,8.65,8.65,0,0,1,1.29.45l.21-.65h.76l.16,3.73h-.7a4.5,4.5,0,0,0-1.21-2,2.62,2.62,0,0,0-1.84-.83,1.91,1.91,0,0,0-1.21.35,1.16,1.16,0,0,0-.45,1,1.27,1.27,0,0,0,.65,1.2,8.25,8.25,0,0,0,1.81.7,5.73,5.73,0,0,1,2.63,1.37,3.06,3.06,0,0,1,.84,2.21,3.28,3.28,0,0,1-1.3,2.78A5.44,5.44,0,0,1,40.73,31.37Z"/><path d="M63.86,25.66a5.72,5.72,0,0,1-1.49,4.07,4.94,4.94,0,0,1-3.79,1.62,7.43,7.43,0,0,1-1.52-.14A5.35,5.35,0,0,1,56,30.88a3.76,3.76,0,0,1-.74-.41c-.19-.13-.33-.25-.44-.33l-1.44,1.42-.59-.25c0-.54.06-1.11.09-1.73s0-1.47,0-2.52V16.84a1.77,1.77,0,0,0-.16-.77,1.21,1.21,0,0,0-.41-.54,1.75,1.75,0,0,0-.56-.23,3,3,0,0,0-.68-.12v-.8l5-.28.15.17v7.1h.06a5,5,0,0,1,1.51-1.14,3.61,3.61,0,0,1,1.54-.36,4,4,0,0,1,3.33,1.56A6.73,6.73,0,0,1,63.86,25.66Zm-3.61.13a11.82,11.82,0,0,0-.11-1.6,5.29,5.29,0,0,0-.39-1.36,2.54,2.54,0,0,0-.71-.94A1.68,1.68,0,0,0,58,21.53a2,2,0,0,0-1.74.87v6.35a3.55,3.55,0,0,0,.23.57,2.76,2.76,0,0,0,.33.56,2,2,0,0,0,.51.43,1.63,1.63,0,0,0,.77.14,1.79,1.79,0,0,0,1.61-1.21A8,8,0,0,0,60.25,25.79Z"/><path d="M71.52,31H65.16v-.8l.51-.05a1.66,1.66,0,0,0,.44-.11.86.86,0,0,0,.45-.38,1.34,1.34,0,0,0,.13-.65V22.66a1.3,1.3,0,0,0-.16-.67,1.43,1.43,0,0,0-.4-.47,2,2,0,0,0-.55-.25,3.29,3.29,0,0,0-.67-.15v-.8L69.84,20l.15.16v8.67a1.3,1.3,0,0,0,.15.65.93.93,0,0,0,.43.4,3.86,3.86,0,0,0,.45.17,2.61,2.61,0,0,0,.5.11ZM70.05,16.11a1.93,1.93,0,0,1-.59,1.41,1.9,1.9,0,0,1-1.39.58,2,2,0,0,1-1.41-3.41,1.9,1.9,0,0,1,1.41-.59,1.88,1.88,0,0,1,1.4.59A2,2,0,0,1,70.05,16.11Z"/><path d="M85.35,31H80.61C80,29.89,79.49,29,79,28.17s-.94-1.49-1.37-2.15l-.59.55V29a1.5,1.5,0,0,0,.11.64.67.67,0,0,0,.4.37,2.61,2.61,0,0,0,.43.16,2.67,2.67,0,0,0,.48.08V31H72.22v-.8a4.43,4.43,0,0,0,.51-.06,2.21,2.21,0,0,0,.44-.1.69.69,0,0,0,.44-.37,1.56,1.56,0,0,0,.12-.66V16.84a2.09,2.09,0,0,0-.15-.75,1.25,1.25,0,0,0-.42-.59,1.73,1.73,0,0,0-.58-.21,3.78,3.78,0,0,0-.69-.11v-.8l5-.28.15.17V25.54c.5-.48,1-1,1.67-1.67s1.12-1.16,1.49-1.57a1.33,1.33,0,0,0,.37-.57c0-.12,0-.2,0-.23s-.11-.24-.32-.33a4.49,4.49,0,0,0-1-.23v-.77h5.11v.75a10.43,10.43,0,0,0-1.53.57,9.47,9.47,0,0,0-1.15.72c-.27.2-.54.4-.8.62s-.55.48-.88.8L81.9,26.5c.56.88,1.14,1.81,1.75,2.8a1.55,1.55,0,0,0,.77.68,3.49,3.49,0,0,0,.93.22Z"/><path d="M96.27,28.39a6,6,0,0,1-.85,1.17,5.14,5.14,0,0,1-1.13,1,6.15,6.15,0,0,1-1.36.63,5.47,5.47,0,0,1-1.59.21,6.48,6.48,0,0,1-2.57-.46,4.84,4.84,0,0,1-2.83-3.06,7,7,0,0,1-.35-2.29A5.91,5.91,0,0,1,86,23.41,5.54,5.54,0,0,1,87,21.59a5.05,5.05,0,0,1,1.72-1.26,5.52,5.52,0,0,1,2.33-.48,6.07,6.07,0,0,1,2.31.37,4,4,0,0,1,1.5,1,3.82,3.82,0,0,1,.84,1.47A6.06,6.06,0,0,1,96,24.49v.71H89.2A6.08,6.08,0,0,0,90,28.61a2.85,2.85,0,0,0,2.53,1.17,2.74,2.74,0,0,0,1.7-.57,5.19,5.19,0,0,0,1.29-1.42Zm-3.84-4.15c0-.44,0-.88-.06-1.34a4.86,4.86,0,0,0-.21-1.13,1.75,1.75,0,0,0-.47-.77,1.07,1.07,0,0,0-.75-.26,1.38,1.38,0,0,0-1.24.85,6.18,6.18,0,0,0-.5,2.69Z"/><path d="M10.65,49.6a6.33,6.33,0,0,1-2.47-.44,4.67,4.67,0,0,1-2.8-3A7.39,7.39,0,0,1,5,43.82a5.7,5.7,0,0,1,.42-2.17,6.17,6.17,0,0,1,1.13-1.8,5.4,5.4,0,0,1,1.83-1.27,5.93,5.93,0,0,1,2.41-.48,5.07,5.07,0,0,1,2.93.76,2.4,2.4,0,0,1,1.07,2,2,2,0,0,1-.38,1.27,1.6,1.6,0,0,1-1.32.48,2,2,0,0,1-1.26-.39,1.26,1.26,0,0,1-.51-1,3.49,3.49,0,0,1,.16-1.06,4.54,4.54,0,0,0,.19-.8.74.74,0,0,0-.28-.3,1,1,0,0,0-.53-.1,1.51,1.51,0,0,0-.83.23,2.12,2.12,0,0,0-.69.81,5,5,0,0,0-.5,1.46,11.63,11.63,0,0,0-.18,2.2,5.33,5.33,0,0,0,.84,3.14,2.42,2.42,0,0,0,2,1.19,2.72,2.72,0,0,0,1.78-.54,4.69,4.69,0,0,0,1.17-1.54l.75.57a5.75,5.75,0,0,1-.74,1.22,4.87,4.87,0,0,1-1,1,5.08,5.08,0,0,1-1.28.67A4.46,4.46,0,0,1,10.65,49.6Z"/><path d="M25.86,40.42a2.34,2.34,0,0,1-.47,1.46,1.48,1.48,0,0,1-1.25.63,2,2,0,0,1-1.24-.41,1.41,1.41,0,0,1-.51-1.18,2.22,2.22,0,0,1,.06-.59c0-.15.06-.28.09-.4a2,2,0,0,0-1,.34,3.56,3.56,0,0,0-.91.87v6a1.48,1.48,0,0,0,.12.63.74.74,0,0,0,.37.39,2.28,2.28,0,0,0,.72.2,6.86,6.86,0,0,0,.72.1v.79H15.85v-.79l.51-.06a2.06,2.06,0,0,0,.43-.11.77.77,0,0,0,.45-.37,1.51,1.51,0,0,0,.12-.65V40.91a1.35,1.35,0,0,0-.18-.7,1.47,1.47,0,0,0-.41-.5,1.52,1.52,0,0,0-.46-.22,2.66,2.66,0,0,0-.6-.12v-.8l4.79-.28.15.16V40h.05a6,6,0,0,1,1.47-1.37,3,3,0,0,1,1.62-.5,1.93,1.93,0,0,1,1.51.63A2.32,2.32,0,0,1,25.86,40.42Z"/><path d="M38.06,49a7.79,7.79,0,0,1-1.05.39,4.81,4.81,0,0,1-1.27.17,3.23,3.23,0,0,1-1.82-.4A1.94,1.94,0,0,1,33.13,48h-.06a7.74,7.74,0,0,1-.66.64,4.15,4.15,0,0,1-.68.44,4,4,0,0,1-2.14.48,2.85,2.85,0,0,1-2-.75,2.54,2.54,0,0,1-.83-2A3.59,3.59,0,0,1,27,45.66a2.7,2.7,0,0,1,.52-.88,2.61,2.61,0,0,1,.7-.58,8.82,8.82,0,0,1,.87-.43c.6-.24,1.33-.49,2.17-.74a12.1,12.1,0,0,0,1.86-.7v-1c0-.18,0-.42,0-.72a2.78,2.78,0,0,0-.17-.75,1.53,1.53,0,0,0-.45-.59,1.22,1.22,0,0,0-.79-.24,1.78,1.78,0,0,0-.74.13,3.22,3.22,0,0,0-.48.28,5,5,0,0,0,.17.67,2.71,2.71,0,0,1,.14.86,1.59,1.59,0,0,1-.09.47,1.12,1.12,0,0,1-.26.44,1.8,1.8,0,0,1-.52.34,2.43,2.43,0,0,1-.88.12,1.69,1.69,0,0,1-1.28-.45,1.63,1.63,0,0,1,0-2.24,3.57,3.57,0,0,1,1.09-.81,5.82,5.82,0,0,1,1.46-.51,7.21,7.21,0,0,1,1.53-.18,12.23,12.23,0,0,1,1.79.13,4,4,0,0,1,1.47.52,2.69,2.69,0,0,1,1,1.11,4.23,4.23,0,0,1,.37,1.89c0,.82,0,1.8,0,2.93s0,1.87,0,2.23a1.84,1.84,0,0,0,.13.77.92.92,0,0,0,.42.43,1.32,1.32,0,0,0,.54.1l.67,0Zm-5-5.68a9.85,9.85,0,0,0-1.12.47,4.2,4.2,0,0,0-.91.57,2,2,0,0,0-.59.78,2.76,2.76,0,0,0-.21,1.12,1.78,1.78,0,0,0,.36,1.24,1.17,1.17,0,0,0,.88.38,1.56,1.56,0,0,0,.92-.25,3,3,0,0,0,.63-.6Z"/><path d="M48.34,34.21a2.26,2.26,0,0,1-.08.6,1.34,1.34,0,0,1-.26.55,1.53,1.53,0,0,1-.47.42,1.75,1.75,0,0,1-.78.14,1.48,1.48,0,0,1-1.25-.6,8.24,8.24,0,0,1-1-2,1.5,1.5,0,0,0-.65,1,13.39,13.39,0,0,0-.25,3.32v.87H46.4v1.19H43.65v7.51a1.08,1.08,0,0,0,.18.66,1,1,0,0,0,.47.34,3.94,3.94,0,0,0,.63.17,5.85,5.85,0,0,0,.71.12v.79h-6.8v-.79l.51-.06a1.77,1.77,0,0,0,.44-.11.75.75,0,0,0,.44-.37,1.51,1.51,0,0,0,.12-.65V39.66h-2V38.47h2a8.18,8.18,0,0,1,.31-2.27,5.76,5.76,0,0,1,1-2,4.56,4.56,0,0,1,1.67-1.38,5.31,5.31,0,0,1,2.43-.52,3.19,3.19,0,0,1,1.93.51A1.6,1.6,0,0,1,48.34,34.21Z"/><path d="M55.09,48.75a10.72,10.72,0,0,1-1.38.55,5.48,5.48,0,0,1-1.79.25,3,3,0,0,1-2.33-.83,3.41,3.41,0,0,1-.76-2.37V39.66H47V38.47h1.85V35.16h3.26v3.31H55v1.19H52.15v6a3.62,3.62,0,0,0,.33,1.81,1.27,1.27,0,0,0,1.18.54c.18,0,.43,0,.75,0a3.86,3.86,0,0,0,.68-.1Z"/><path d="M100,53.54H0V8.46H100ZM1.55,52h96.9V10H1.55Z"/></svg>